<svg xmlns="http://www.w3.org/2000/svg" viewBox="0 0 880 544" role="img" aria-label="Dependency graph of the @wats packages. Arrows point from dependent package to dependency." font-family="'JetBrains Mono', ui-monospace, monospace">
  <defs>
    <marker id="arrow" viewBox="0 0 8 8" refX="7" refY="4" markerWidth="7" markerHeight="7" orient="auto-start-reverse">
      <path d="M 0 0 L 8 4 L 0 8 z" fill="#3b4654"/>
    </marker>
    <marker id="arrow-dim" viewBox="0 0 8 8" refX="7" refY="4" markerWidth="7" markerHeight="7" orient="auto-start-reverse">
      <path d="M 0 0 L 8 4 L 0 8 z" fill="#2a3340"/>
    </marker>
  </defs>
  <rect x="0" y="0" width="880" height="544" fill="#0a0e12"/>
  <path d="M 752.75 444 C 752.75 388, 752.75 224, 752.75 175" fill="none" stroke="#3b4654" stroke-width="1.3" marker-end="url(#arrow)"/>
  <path d="M 638.75 444 C 638.75 413.4, 582.25 406.6, 582.25 383" fill="none" stroke="#3b4654" stroke-width="1.3" marker-end="url(#arrow)"/>
  <path d="M 695.75 132 C 695.75 101.4, 838 94.6, 838 71" fill="none" stroke="#3b4654" stroke-width="1.3" marker-end="url(#arrow)"/>
  <path d="M 297.75 132 C 297.75 101.4, 269.5 94.6, 269.5 71" fill="none" stroke="#3b4654" stroke-width="1.3" marker-end="url(#arrow)"/>
  <path d="M 411.75 132 C 411.75 101.4, 383 94.6, 383 71" fill="none" stroke="#3b4654" stroke-width="1.3" marker-end="url(#arrow)"/>
  <path d="M 269.5 28 C 269.5 11.8, 553.5 80.2, 553.5 71" fill="none" stroke="#3b4654" stroke-width="1.3" marker-end="url(#arrow)"/>
  <path d="M 383 236 C 383 205.4, 297.75 198.6, 297.75 175" fill="none" stroke="#3b4654" stroke-width="1.3" marker-end="url(#arrow)"/>
  <path d="M 497 236 C 497 180, 629.5 120, 629.5 71" fill="none" stroke="#3b4654" stroke-width="1.3" marker-end="url(#arrow)"/>
  <path d="M 440 236 C 440 180, 497 120, 497 71" fill="none" stroke="#3b4654" stroke-width="1.3" marker-end="url(#arrow)"/>
  <path d="M 582.25 340 C 582.25 284, 638.75 224, 638.75 175" fill="none" stroke="#3b4654" stroke-width="1.3" marker-end="url(#arrow)"/>
  <path d="M 513.85 340 C 513.85 284, 411.75 224, 411.75 175" fill="none" stroke="#3b4654" stroke-width="1.3" marker-end="url(#arrow)"/>
  <path d="M 559.45 340 C 559.45 284, 667.5 120, 667.5 71" fill="none" stroke="#3b4654" stroke-width="1.3" marker-end="url(#arrow)"/>
  <path d="M 491.05 340 C 491.05 284, 326.5 120, 326.5 71" fill="none" stroke="#3b4654" stroke-width="1.3" marker-end="url(#arrow)"/>
  <path d="M 536.65 340 C 536.65 309.4, 497 302.6, 497 279" fill="none" stroke="#3b4654" stroke-width="1.3" marker-end="url(#arrow)"/>
  <path d="M 468.25 340 C 468.25 284, 99 120, 99 71" fill="none" stroke="#3b4654" stroke-width="1.3" marker-end="url(#arrow)"/>
  <path d="M 298 444 C 298 388, 591.5 120, 591.5 71" fill="none" stroke="#2a3340" stroke-width="1.3" marker-end="url(#arrow-dim)"/>
  <path d="M 212.5 444 C 212.5 388, 212.5 120, 212.5 71" fill="none" stroke="#2a3340" stroke-width="1.3" marker-end="url(#arrow-dim)"/>
  <path d="M 241 444 C 241 388, 383 328, 383 279" fill="none" stroke="#2a3340" stroke-width="1.3" marker-end="url(#arrow-dim)"/>
  <path d="M 326.5 444 C 326.5 388, 724 120, 724 71" fill="none" stroke="#2a3340" stroke-width="1.3" marker-end="url(#arrow-dim)"/>
  <path d="M 269.5 444 C 269.5 413.4, 468.25 406.6, 468.25 383" fill="none" stroke="#2a3340" stroke-width="1.3" marker-end="url(#arrow-dim)"/>
  <g>
    <rect x="24" y="28" width="150" height="36" rx="6" fill="#11161c" stroke="#d6a740" stroke-width="1.4"/>
    <text x="99" y="50" text-anchor="middle" fill="#e6edf3" font-size="13">persistence</text>
  </g>
  <g>
    <rect x="194.5" y="28" width="150" height="36" rx="6" fill="#11161c" stroke="#25d366" stroke-width="1.4"/>
    <text x="269.5" y="50" text-anchor="middle" fill="#e6edf3" font-size="13">graph</text>
  </g>
  <g>
    <rect x="365" y="28" width="150" height="36" rx="6" fill="#11161c" stroke="#25d366" stroke-width="1.4"/>
    <text x="440" y="50" text-anchor="middle" fill="#e6edf3" font-size="13">types</text>
  </g>
  <g>
    <rect x="535.5" y="28" width="150" height="36" rx="6" fill="#11161c" stroke="#25d366" stroke-width="1.4"/>
    <text x="610.5" y="50" text-anchor="middle" fill="#e6edf3" font-size="13">crypto</text>
  </g>
  <g>
    <rect x="706" y="28" width="150" height="36" rx="6" fill="#11161c" stroke="#566273" stroke-width="1.4"/>
    <text x="781" y="50" text-anchor="middle" fill="#8b98a5" font-size="13">internal-utils</text>
  </g>
  <g>
    <rect x="279.75" y="132" width="150" height="36" rx="6" fill="#11161c" stroke="#25d366" stroke-width="1.4"/>
    <text x="354.75" y="154" text-anchor="middle" fill="#e6edf3" font-size="13">core</text>
  </g>
  <g>
    <rect x="620.75" y="132" width="150" height="36" rx="6" fill="#11161c" stroke="#d6a740" stroke-width="1.4"/>
    <text x="695.75" y="154" text-anchor="middle" fill="#e6edf3" font-size="13">config</text>
  </g>
  <g>
    <rect x="365" y="236" width="150" height="36" rx="6" fill="#11161c" stroke="#25d366" stroke-width="1.4"/>
    <text x="440" y="258" text-anchor="middle" fill="#e6edf3" font-size="13">http</text>
  </g>
  <g>
    <rect x="450.25" y="340" width="150" height="36" rx="6" fill="#11161c" stroke="#d6a740" stroke-width="1.4"/>
    <text x="525.25" y="362" text-anchor="middle" fill="#e6edf3" font-size="13">service</text>
  </g>
  <g>
    <rect x="194.5" y="444" width="150" height="36" rx="6" fill="#11161c" stroke="#566273" stroke-width="1.4" stroke-dasharray="4 3"/>
    <text x="269.5" y="466" text-anchor="middle" fill="#8b98a5" font-size="13">testing</text>
  </g>
  <g>
    <rect x="620.75" y="444" width="150" height="36" rx="6" fill="#11161c" stroke="#d6a740" stroke-width="1.4"/>
    <text x="695.75" y="466" text-anchor="middle" fill="#e6edf3" font-size="13">cli</text>
  </g>
  <rect x="24" y="509" width="14" height="14" rx="3" fill="#11161c" stroke="#25d366" stroke-width="1.4"/>
  <text x="44" y="521" fill="#8b98a5" font-size="11.5">foundations-complete</text>
  <rect x="204" y="509" width="14" height="14" rx="3" fill="#11161c" stroke="#d6a740" stroke-width="1.4"/>
  <text x="224" y="521" fill="#8b98a5" font-size="11.5">experimental</text>
  <rect x="331.2" y="509" width="14" height="14" rx="3" fill="#11161c" stroke="#566273" stroke-width="1.4"/>
  <text x="351.2" y="521" fill="#8b98a5" font-size="11.5">internal / private</text>
  <text x="856" y="521" text-anchor="end" fill="#566273" font-size="11.5">generated from package manifests</text>
</svg>
